<?xml version="1.0" encoding="UTF-8" standalone="no"?>
<svg
   xmlns:dc="http://purl.org/dc/elements/1.1/"
   xmlns:cc="http://creativecommons.org/ns#"
   xmlns:rdf="http://www.w3.org/1999/02/22-rdf-syntax-ns#"
   xmlns:svg="http://www.w3.org/2000/svg"
   xmlns="http://www.w3.org/2000/svg"
   viewBox="0 0 793.70135 1122.52"
   height="1122.52"
   width="793.70135"
   xml:space="preserve"
   id="svg2"
   version="1.1"><metadata
     id="metadata8"><rdf:RDF><cc:Work
         rdf:about=""><dc:format>image/svg+xml</dc:format><dc:type
           rdf:resource="http://purl.org/dc/dcmitype/StillImage" /></cc:Work></rdf:RDF></metadata><defs
     id="defs6"><clipPath
       id="clipPath18"
       clipPathUnits="userSpaceOnUse"><path
         id="path16"
         d="M 0,841.89 H 595.276 V 0 H 0 Z" /></clipPath></defs><g
     transform="matrix(1.3333333,0,0,-1.3333333,0,1122.52)"
     id="g10"><g
       id="g12"><g
         clip-path="url(#clipPath18)"
         id="g14"><g
           transform="translate(140.856,417.5512)"
           id="g20"><path
             id="path22"
             style="fill:#244b5a;fill-opacity:1;fill-rule:nonzero;stroke:none"
             d="m 0,0 -23.196,34.211 c -0.985,1.452 0.055,3.414 1.81,3.414 h 6.784 c 0.726,0 1.405,-0.36 1.812,-0.962 L 10.519,2.191 33.85,36.663 c 0.407,0.602 1.085,0.962 1.811,0.962 h 6.793 c 1.753,0 2.793,-1.959 1.812,-3.411 L 21.145,0 C 18.063,-4.595 14.525,-6.892 10.53,-6.892 6.535,-6.892 3.025,-4.595 0,0" /></g><g
           transform="translate(198.8571,452.5907)"
           id="g24"><path
             id="path26"
             style="fill:#244b5a;fill-opacity:1;fill-rule:nonzero;stroke:none"
             d="M 0,0 C -0.015,1.438 -1.17,2.6 -2.595,2.6 H -7.79 c -1.425,0 -2.58,-1.162 -2.595,-2.6 h -0.003 v -39.304 c 0,-1.451 1.163,-2.627 2.598,-2.627 h 5.195 c 1.435,0 2.598,1.176 2.598,2.627 L 0.003,0 Z" /></g><g
           transform="translate(256.7499,438.1371)"
           id="g28"><path
             id="path30"
             style="fill:#244b5a;fill-opacity:1;fill-rule:nonzero;stroke:none"
             d="M 0,0 H -41.562 V 6.663 L 7.791,6.661 v 0.002 c 1.438,0.015 2.6,1.17 2.6,2.595 v 5.196 c 0,1.425 -1.162,2.58 -2.6,2.594 v 0.003 l -49.353,0.002 c -5.739,0 -10.391,-4.652 -10.391,-10.39 0,-0.003 0.001,-0.005 0.001,-0.008 h -0.001 V 0 c 0,-5.738 4.652,-10.391 10.391,-10.391 H -10.389 0 v -6.696 h -49.325 c -1.451,0 -2.628,-1.163 -2.628,-2.598 v -5.195 c 0,-1.434 1.177,-2.597 2.628,-2.597 H 0 c 5.739,0 10.391,4.652 10.391,10.39 0,0.011 -0.002,0.022 -0.002,0.034 h 0.002 v 6.662 h -0.002 v 0.002 l 0.002,-0.002 C 10.391,-4.652 5.739,0 0,0" /></g><g
           transform="translate(476.7879,444.7979)"
           id="g32"><path
             id="path34"
             style="fill:#ffd600;fill-opacity:1;fill-rule:nonzero;stroke:none"
             d="m 0,0 v 0.003 c 1.438,0.015 2.6,1.169 2.6,2.595 v 5.195 c 0,1.425 -1.162,2.58 -2.6,2.595 v 0.003 l -49.353,0.002 c -5.738,0 -10.39,-4.652 -10.39,-10.391 v -23.75 l 0.006,-0.002 h -0.006 c 0,-5.738 4.652,-10.39 10.39,-10.39 L 0,-34.138 v 0.003 c 1.438,0.014 2.6,1.169 2.6,2.594 v 5.196 c 0,1.425 -1.162,2.58 -2.6,2.595 v 0.002 L -49.353,-23.75 V 0.002 Z" /></g><g
           transform="translate(408.5072,444.7979)"
           id="g36"><path
             id="path38"
             style="fill:#ffd600;fill-opacity:1;fill-rule:nonzero;stroke:none"
             d="m 0,0 v 0.003 c 1.438,0.015 2.6,1.169 2.6,2.595 v 5.195 c 0,1.425 -1.162,2.58 -2.6,2.595 v 0.003 l -49.353,0.002 c -5.738,0 -10.39,-4.652 -10.39,-10.391 v -23.75 l 0.006,-0.002 h -0.006 c 0,-5.738 4.652,-10.39 10.39,-10.39 L 0,-34.138 v 0.003 c 1.438,0.014 2.6,1.169 2.6,2.594 v 5.196 c 0,1.425 -1.162,2.58 -2.6,2.595 v 0.002 l -49.353,-0.002 v 6.698 L 0,-17.053 v 0.002 c 1.438,0.015 2.6,1.17 2.6,2.595 v 5.195 c 0,1.426 -1.162,2.58 -2.6,2.595 v 0.003 l -49.353,0.002 v 6.663 z" /></g><g
           transform="translate(335.6465,455.1906)"
           id="g40"><path
             id="path42"
             style="fill:#ffd600;fill-opacity:1;fill-rule:nonzero;stroke:none"
             d="M 0,0 C -2.224,0 -4.376,-0.96 -5.529,-2.599 L -27.694,-34.14 -49.859,-2.599 C -51.012,-0.96 -53.164,0 -55.388,0 c -3.965,0 -7.18,-3.215 -7.18,-7.18 v -34.724 c 0,-1.451 1.163,-2.627 2.598,-2.627 h 5.195 c 1.435,0 2.598,1.176 2.598,2.627 v 24.851 l 14.251,-21.136 c 2.698,-3.811 5.742,-5.886 9.123,-6.261 0.363,-0.051 0.732,-0.081 1.109,-0.081 0.377,0 0.746,0.03 1.109,0.081 3.382,0.375 6.425,2.45 9.124,6.261 l 14.25,21.136 v -24.851 c 0,-1.451 1.163,-2.627 2.598,-2.627 h 5.195 c 1.435,0 2.598,1.176 2.598,2.627 V -7.18 C 7.18,-3.215 3.965,0 0,0" /></g><g
           transform="translate(151.3753,400.2198)"
           id="g44"><path
             id="path46"
             style="fill:#244b5a;fill-opacity:1;fill-rule:nonzero;stroke:none"
             d="m 0,0 h 4.146 v -10.252 h 9.374 v -3.37 H 0 Z" /></g><g
           transform="translate(184.3832,400.2198)"
           id="g48"><path
             id="path50"
             style="fill:#244b5a;fill-opacity:1;fill-rule:nonzero;stroke:none"
             d="m 0,0 v -3.084 h -11.008 v -2.348 h 10.375 v -2.696 h -10.375 v -2.41 h 11.15 v -3.084 H -15.093 V 0 Z" /></g><g
           transform="translate(201.0264,391.8669)"
           id="g52"><path
             id="path54"
             style="fill:#244b5a;fill-opacity:1;fill-rule:nonzero;stroke:none"
             d="M 0,0 -2.94,5.432 -5.841,0 Z m -5.677,8.353 h 5.555 L 7.332,-5.269 H 2.798 l -1.348,2.43 h -8.781 l -1.307,-2.43 h -4.698 z" /></g><g
           transform="translate(222.9936,389.8449)"
           id="g56"><path
             id="path58"
             style="fill:#244b5a;fill-opacity:1;fill-rule:nonzero;stroke:none"
             d="m 0,0 c 1.124,0 1.205,0 1.696,0.164 1,0.306 1.266,1.02 1.266,3.369 0,2.859 -0.49,3.452 -2.88,3.452 H -6.943 L -6.943,0 Z M -11.09,10.375 H 0.674 c 2.88,0 4.228,-0.327 5.167,-1.266 C 6.597,8.373 6.904,7.516 7.047,5.78 7.087,5.146 7.128,4.207 7.128,3.554 7.128,2.328 7.047,0.919 6.924,0.143 6.699,-1.491 5.556,-2.757 4.064,-3.043 3.288,-3.206 2.676,-3.247 1.225,-3.247 H -11.09 Z" /></g><path
           id="path60"
           style="fill:#244b5a;fill-opacity:1;fill-rule:nonzero;stroke:none"
           d="m 234.341,400.22 h 4.146 v -13.622 h -4.146 z" /><g
           transform="translate(242.9332,400.2198)"
           id="g62"><path
             id="path64"
             style="fill:#244b5a;fill-opacity:1;fill-rule:nonzero;stroke:none"
             d="M 0,0 H 6.597 L 14.848,-10.354 14.746,0 h 3.921 V -13.622 H 12.009 L 3.88,-3.37 3.983,-13.622 H 0 Z" /></g><g
           transform="translate(279.4834,395.6041)"
           id="g66"><path
             id="path68"
             style="fill:#244b5a;fill-opacity:1;fill-rule:nonzero;stroke:none"
             d="m 0,0 c 0,1.062 -0.47,1.471 -1.716,1.512 h -1.041 l -1.471,0.02 -1.511,-0.02 c -1.981,0 -1.981,0 -2.472,-0.123 -0.755,-0.184 -1.082,-0.572 -1.184,-1.429 -0.061,-0.368 -0.102,-1.614 -0.102,-2.492 0,-1.838 0.184,-2.574 0.755,-2.962 0.47,-0.306 1.043,-0.428 2.125,-0.449 0.449,-0.02 0.449,-0.02 3.001,-0.02 2.717,-0.021 3.227,0.122 3.575,1.021 C 0,-4.779 0.02,-4.595 0.02,-4.187 v 0.144 0.183 h -5.248 v 2.532 h 9.292 v -1.878 c 0,-2.247 -0.081,-3.043 -0.347,-3.778 -0.47,-1.267 -1.43,-1.879 -3.145,-2.063 -0.429,-0.041 -1.675,-0.062 -5.698,-0.062 -3.126,0 -4.33,0.062 -5.188,0.246 -1.491,0.327 -2.369,0.96 -2.839,2.083 -0.408,0.919 -0.51,1.878 -0.51,4.411 0,2.921 0.163,4.085 0.694,5.045 0.613,1.062 1.572,1.613 3.33,1.858 0.938,0.123 2.593,0.184 5.187,0.184 3.717,0 4.901,-0.061 5.759,-0.265 C 3.411,3.921 4.085,2.86 4.064,0 Z" /></g><path
           id="path70"
           style="fill:#244b5a;fill-opacity:1;fill-rule:nonzero;stroke:none"
           d="m 299.52,400.22 h 4.146 v -13.622 h -4.146 z" /><g
           transform="translate(307.7032,400.2198)"
           id="g72"><path
             id="path74"
             style="fill:#244b5a;fill-opacity:1;fill-rule:nonzero;stroke:none"
             d="M 0,0 H 6.597 L 14.848,-10.354 14.746,0 h 3.921 V -13.622 H 12.009 L 3.88,-3.37 3.983,-13.622 H 0 Z" /></g><g
           transform="translate(330.4492,400.2198)"
           id="g76"><path
             id="path78"
             style="fill:#244b5a;fill-opacity:1;fill-rule:nonzero;stroke:none"
             d="M 0,0 H 6.597 L 14.848,-10.354 14.746,0 h 3.921 V -13.622 H 12.009 L 3.88,-3.37 3.983,-13.622 H 0 Z" /></g><g
           transform="translate(357.8294,396.544)"
           id="g80"><path
             id="path82"
             style="fill:#244b5a;fill-opacity:1;fill-rule:nonzero;stroke:none"
             d="m 0,0 c -0.551,-0.429 -0.715,-1.103 -0.715,-3.064 0,-2.001 0.164,-2.737 0.674,-3.165 0.551,-0.45 1.225,-0.531 4.351,-0.531 3.573,0 4.309,0.122 4.778,0.776 0.389,0.49 0.491,1.184 0.491,3.002 C 9.579,0.449 9.518,0.49 4.411,0.49 1.368,0.49 0.531,0.388 0,0 m 10.171,3.614 c 2.103,-0.387 3.125,-1.47 3.41,-3.655 0.082,-0.552 0.123,-1.654 0.123,-3.308 0,-3.289 -0.347,-4.616 -1.511,-5.576 -0.817,-0.695 -1.96,-1.021 -3.941,-1.103 -0.736,-0.041 -2.554,-0.062 -3.881,-0.062 -3.247,0 -4.902,0.062 -5.719,0.225 -1.511,0.266 -2.389,0.838 -2.899,1.838 -0.531,1.001 -0.654,2.002 -0.654,4.984 0,2.287 0.041,2.859 0.285,3.778 0.389,1.45 1.185,2.226 2.717,2.675 1.143,0.327 2.389,0.409 5.984,0.409 3.921,0 5.126,-0.041 6.086,-0.205" /></g><g
           transform="translate(373.3711,400.2198)"
           id="g84"><path
             id="path86"
             style="fill:#244b5a;fill-opacity:1;fill-rule:nonzero;stroke:none"
             d="M 0,0 H 4.575 L 9.945,-10.293 15.439,0 h 4.616 L 12.519,-13.622 H 7.27 Z" /></g><g
           transform="translate(404.6158,391.8669)"
           id="g88"><path
             id="path90"
             style="fill:#244b5a;fill-opacity:1;fill-rule:nonzero;stroke:none"
             d="M 0,0 -2.94,5.432 -5.841,0 Z m -5.677,8.353 h 5.555 L 7.332,-5.269 H 2.798 l -1.348,2.43 h -8.781 l -1.307,-2.43 h -4.698 z" /></g><g
           transform="translate(416.9722,396.8503)"
           id="g92"><path
             id="path94"
             style="fill:#244b5a;fill-opacity:1;fill-rule:nonzero;stroke:none"
             d="M 0,0 H -6.066 V 3.37 H 10.211 V 0 H 4.146 V -10.253 H 0 Z" /></g><path
           id="path96"
           style="fill:#244b5a;fill-opacity:1;fill-rule:nonzero;stroke:none"
           d="m 430.372,400.22 h 4.146 v -13.622 h -4.146 z" /><g
           transform="translate(443.2038,396.544)"
           id="g98"><path
             id="path100"
             style="fill:#244b5a;fill-opacity:1;fill-rule:nonzero;stroke:none"
             d="m 0,0 c -0.551,-0.429 -0.715,-1.103 -0.715,-3.064 0,-2.001 0.164,-2.737 0.674,-3.165 0.551,-0.45 1.225,-0.531 4.351,-0.531 3.573,0 4.309,0.122 4.778,0.776 0.389,0.49 0.491,1.184 0.491,3.002 C 9.579,0.449 9.518,0.49 4.411,0.49 1.368,0.49 0.531,0.388 0,0 m 10.171,3.614 c 2.103,-0.387 3.125,-1.47 3.41,-3.655 0.082,-0.552 0.123,-1.654 0.123,-3.308 0,-3.289 -0.347,-4.616 -1.511,-5.576 -0.817,-0.695 -1.96,-1.021 -3.942,-1.103 -0.735,-0.041 -2.552,-0.062 -3.88,-0.062 -3.248,0 -4.902,0.062 -5.719,0.225 -1.511,0.266 -2.389,0.838 -2.899,1.838 -0.531,1.001 -0.654,2.002 -0.654,4.984 0,2.287 0.041,2.859 0.285,3.778 0.389,1.45 1.185,2.226 2.717,2.675 1.143,0.327 2.389,0.409 5.984,0.409 3.921,0 5.126,-0.041 6.086,-0.205" /></g><g
           transform="translate(460.7205,400.2198)"
           id="g102"><path
             id="path104"
             style="fill:#244b5a;fill-opacity:1;fill-rule:nonzero;stroke:none"
             d="M 0,0 H 6.597 L 14.848,-10.354 14.746,0 h 3.921 V -13.622 H 12.009 L 3.88,-3.37 3.983,-13.622 H 0 Z" /></g></g></g></g></svg>